<?xml version="1.0" standalone="no"?>
<!DOCTYPE svg PUBLIC "-//W3C//DTD SVG 20010904//EN"
 "http://www.w3.org/TR/2001/REC-SVG-20010904/DTD/svg10.dtd">
<svg version="1.0" xmlns="http://www.w3.org/2000/svg"
 width="700.000000pt" height="700.000000pt" viewBox="0 0 700.000000 700.000000"
 preserveAspectRatio="xMidYMid meet">
<metadata>
Created by potrace 1.14, written by Peter Selinger 2001-2017
</metadata>
<g transform="translate(0.000000,700.000000) scale(0.100000,-0.100000)"
fill="#000000" stroke="none">
<path d="M3278 6996 c-1 -2 -41 -6 -88 -10 -47 -4 -96 -8 -110 -10 -14 -2 -46
-7 -71 -10 -264 -36 -549 -113 -814 -218 -151 -60 -420 -195 -492 -245 -17
-13 -34 -23 -37 -23 -20 0 -336 -228 -430 -310 -506 -441 -854 -956 -1060
-1572 -31 -94 -79 -267 -91 -329 -3 -13 -11 -58 -20 -99 -29 -147 -35 -194
-52 -370 -10 -105 -10 -500 0 -595 4 -38 10 -99 13 -135 5 -54 41 -263 57
-335 106 -463 285 -865 558 -1254 91 -129 226 -296 240 -296 7 0 70 73 303
349 96 115 161 191 166 196 3 3 15 17 26 32 12 15 41 51 66 80 47 54 151 178
217 257 20 24 41 49 46 55 6 6 69 81 140 166 72 85 134 160 140 166 5 6 19 22
30 35 105 125 244 290 360 429 110 131 183 233 340 476 110 170 271 419 358
554 88 135 189 291 226 348 36 56 98 151 136 210 159 244 196 305 188 312 -16
15 -623 320 -635 320 -7 0 -36 -22 -64 -48 -28 -26 -86 -78 -129 -117 -44 -38
-86 -77 -95 -85 -9 -8 -54 -49 -100 -90 -47 -41 -87 -77 -90 -80 -3 -3 -43
-39 -90 -80 -47 -41 -92 -82 -100 -90 -8 -8 -53 -49 -100 -90 -47 -41 -105
-94 -130 -118 -97 -93 -173 -116 -266 -81 -101 38 -156 130 -140 233 12 77 35
103 276 316 28 25 191 173 220 200 14 14 67 61 116 105 49 44 94 85 100 90 91
84 203 186 228 207 17 14 60 54 96 87 89 85 138 112 208 118 l59 5 484 -245
c791 -402 810 -412 875 -463 59 -47 174 -149 274 -244 36 -34 67 -82 125 -195
43 -82 97 -186 120 -230 23 -44 82 -156 130 -250 48 -93 90 -172 92 -175 6 -6
17 0 505 292 392 235 421 250 476 255 127 12 239 -86 241 -209 1 -56 -34 -139
-72 -170 -28 -24 -288 -182 -437 -266 -24 -14 -84 -49 -133 -78 -49 -30 -92
-54 -94 -54 -3 0 -17 -8 -31 -19 -15 -10 -47 -29 -72 -43 -25 -14 -119 -69
-210 -122 -90 -53 -180 -99 -198 -102 -46 -9 -105 0 -150 23 -34 18 -103 99
-143 170 -9 15 -87 136 -173 268 -86 132 -170 264 -187 293 -17 28 -34 52 -37
52 -4 0 -108 -159 -232 -352 -123 -194 -247 -389 -275 -433 -29 -44 -87 -136
-130 -205 -44 -69 -85 -132 -92 -141 -7 -8 -13 -20 -13 -26 0 -9 100 -36 405
-108 77 -18 201 -47 275 -65 74 -18 146 -34 159 -36 101 -19 184 -133 185
-254 0 -73 -1 -77 -116 -262 -579 -934 -863 -1388 -882 -1409 -12 -14 -45 -39
-72 -55 -44 -26 -58 -29 -134 -29 -81 0 -88 2 -143 38 -122 79 -166 223 -107
352 10 22 74 128 143 235 131 204 360 563 509 798 48 75 84 138 80 139 -5 2
-263 61 -342 78 -8 2 -46 11 -85 20 -38 9 -78 18 -88 21 -10 2 -26 5 -35 8 -9
3 -28 7 -42 10 -14 3 -77 17 -140 31 -63 15 -122 28 -130 30 -8 2 -55 13 -105
25 l-90 21 -20 -24 c-31 -38 -109 -128 -122 -142 -7 -7 -44 -50 -83 -95 -39
-45 -76 -88 -83 -95 -7 -6 -31 -34 -54 -61 -23 -27 -51 -60 -63 -74 -13 -14
-61 -70 -109 -125 -47 -54 -93 -107 -101 -116 -25 -28 -63 -71 -125 -144 -33
-38 -62 -72 -65 -75 -3 -3 -82 -93 -175 -200 -93 -107 -172 -197 -175 -200 -3
-3 -48 -54 -99 -115 -52 -60 -99 -114 -105 -120 -6 -5 -36 -39 -66 -75 -30
-36 -70 -81 -88 -100 l-32 -35 32 -28 c173 -147 557 -371 823 -480 267 -110
621 -207 840 -232 28 -3 64 -8 80 -10 184 -27 672 -27 837 0 13 2 46 7 73 10
72 10 86 12 120 19 17 3 44 8 60 11 259 49 581 156 829 275 875 419 1531 1170
1830 2095 30 95 68 233 82 300 17 81 54 301 59 350 4 33 9 71 11 85 9 46 11
524 4 605 -12 128 -21 202 -25 227 -3 13 -8 43 -11 68 -9 69 -70 336 -97 425
-190 622 -523 1153 -998 1590 -349 321 -789 581 -1244 733 -168 57 -420 119
-555 137 -19 3 -46 7 -60 10 -13 2 -52 7 -86 11 -33 3 -74 8 -90 10 -32 5
-540 14 -546 10z m1909 -846 c174 -60 295 -178 371 -360 35 -84 42 -245 15
-349 -53 -202 -217 -365 -420 -416 -65 -17 -184 -22 -245 -12 -207 36 -393
195 -457 390 -27 82 -32 110 -32 185 0 237 132 445 345 542 120 54 300 63 423
20z"/>
</g>
</svg>
